<svg xmlns="http://www.w3.org/2000/svg" viewBox="0 0 212 54"><defs><style>.cls-1{fill:#c67b61;}.cls-2{fill:#fff;}</style></defs><title>logo-light</title><g id="Слой_2" data-name="Слой 2"><g id="Слой_1-2" data-name="Слой 1"><path class="cls-1" d="M34.35,0h0l-.29.15L31.79,52.33h-.22l.2-51-.24.12-2.24,51h-.44l.34-49.78-.18.1L26.79,52.55h-.67L26.61,4l-.12.06-2.2,48.57H23.4L24,5.38h-.06L21.79,52.77H20.67l.77-46.1-.5,10.93v-.39l-5.37-.43v1l2.79.58-2.83-.21v1l3,.61-3-.21v1l3.23.61L15.49,21v.95l3.46.63-3.5-.17v.92l3.68.65-3.71-.16v.9l3.35.56-3.38-.12V26l4,.65-4.08-.11v.83L19.6,28,15,28v.78l.56-12-.1.08L12.3,53.18h-.47l1.7-35.34-.11.07-3,35.33H9.85L11.5,18.92h-.1L8.49,53.35H7.81L9.48,20H9.37L6.58,53.44H5.81L7.45,21H7.34L4.68,53.52,0,53.73V54H34.63v-.16h.06L35.92.67ZM15,28.83l4.51.65L15,29.43v-.6Zm-.07,1.38,4.75.64H14.91v.32Zm-.07,1.37,5.08.64h-5.1v.23Zm4.44,21.3-5.46.24v-.67h5.44Zm.07-1.34-5.47.61h0v-1.1l5.44.08Zm.06-1.37L14,50.73h0v-1l5.44.12Zm.06-1.37L14,49.32h0l.05-1,5.44.17Zm.07-1.37-5.46.48h0l.05-1,5.43.21Zm.06-1.38-5.45.44h0v-1l5.43.25Zm.07-1.37-5.46.4v-.94l5.43.3Zm.06-1.37-5.45.36v-.92l5.43.34Zm.06-1.37-5.44.32v.09l.05-1,5.43.39Zm.07-1.45-5.44.28v-.85l5.42.43Zm.06-1.37-5.44.23v-.82l5.41.47ZM20,37.73l-5.44.2v-.82l5.41.51Zm.06-1.37-5.43.15v-.77L20,36.3ZM20.13,35l-5.43.11v-.74l5.41.6Zm-5.37-1.32V33l5.37.64Z"/><path class="cls-1" d="M52.32,16.21h0l-4.72,1L47.26,6.72l-1.58-.83,3.09,48H54.4L53.85,17ZM47.6,17.44l4.7-.58v.71l-4.7,1.05Zm0,1.4,4.73-.56V19L47.6,20Zm0,1.4,4.77-.54v.62l-4.76,1Zm0,1.4,4.79-.52v.58l-4.79,1Zm0,1.4,4.83-.5v.53l-4.82,1Zm0,1.4,5-.44v.49l-4.85,1Zm0,1.4,4.89-.45v.43l-4.88,1Zm.05,1.4,4.92-.43v.39L48,28.2Zm0,1.4,4.95-.41v.34l-4.94,1ZM48,30l5-.39V30l-5,1Zm0,1.4L53,31v.25l-5,1Zm0,1.4,5-.34v.2l-5,1Zm0,1.4,5.08-.32V34l-5,1Zm0,1.4,5.1-.3v.11l-5.09,1Zm0,1.4,5.14-.27v.06l-5.11,1Zm.51,15.8v-.41h2.56Zm0-1.37V51h2.8Zm-.05-1.37V49.6h3Zm0-1.37V48.2l3.3-.06Zm0-1.37V46.8l3.55-.08Zm0-1.37V45.4l3.82-.1Zm0-1.37V44l4.09-.13Zm0-1.36V42.6l4.38-.15Zm0-1.37v-.66h0L53,41.06Zm0-1.37V39.8l5-.22Zm0-1.37V38.4l5.16-.25h0Z"/><polygon class="cls-1" points="54.35 17.23 56.63 53.84 56.75 53.84 55.78 17.96 54.35 17.23"/><polygon class="cls-1" points="56.43 18.29 58.99 53.84 59.09 53.84 57.7 18.93 56.43 18.29"/><polygon class="cls-1" points="58.51 19.34 61.34 53.84 61.44 53.84 59.63 19.91 58.51 19.34"/><polygon class="cls-1" points="37.37 53.84 37.66 53.84 38.34 1.88 36.76 1.18 37.37 53.84"/><polygon class="cls-1" points="40.41 53.84 40.62 53.84 40.76 3.09 39.17 2.36 40.41 53.84"/><polygon class="cls-1" points="41.39 3.54 43.24 53.84 43.38 53.84 42.97 4.3 41.39 3.54"/><polygon class="cls-1" points="43.53 4.71 46.01 53.84 46.08 53.84 45.12 5.51 43.53 4.71"/><polygon class="cls-1" points="61.56 20.88 60.58 20.39 63.65 53.38 63.7 54 69.12 54 69.12 53.73 63.75 53.38 61.56 20.88"/><polygon class="cls-2" points="116.23 22.08 116.23 14.35 112.84 14.35 112.84 27.53 115.88 27.53 119.13 19.8 119.13 27.53 122.53 27.53 122.53 14.35 119.49 14.35 116.23 22.08"/><polygon class="cls-2" points="149.89 27.53 149.89 14.35 146.86 14.35 143.6 22.08 143.6 14.35 140.21 14.35 140.21 27.53 143.24 27.53 146.5 19.8 146.5 27.53 149.89 27.53"/><polygon class="cls-2" points="160.42 27.53 163.75 27.53 160.5 14.35 156.31 14.35 153.06 27.53 156.39 27.53 158.42 16.14 160.42 27.53"/><polygon class="cls-2" points="174.69 25.71 170.58 25.71 170.58 20.48 173.97 20.48 173.97 18.66 170.58 18.66 170.58 16.17 174.69 16.17 174.69 14.35 167.19 14.35 167.19 27.53 174.69 27.53 174.69 25.71"/><polygon class="cls-2" points="178.7 27.53 182.09 27.53 182.09 16.17 185.62 16.17 185.62 14.35 178.7 14.35 178.7 27.53"/><polygon class="cls-2" points="198.88 27.53 198.88 14.35 195.84 14.35 192.59 22.08 192.59 14.35 189.19 14.35 189.19 27.53 192.23 27.53 195.49 19.8 195.49 27.53 198.88 27.53"/><path class="cls-2" d="M109.72,19.08c0-3-2.11-4.73-5.45-4.73h-4.22V27.53h3.39V23.84h.83C107.61,23.84,109.72,22.09,109.72,19.08Zm-6.28,3.37V15.71c1.81.06,3,1.25,3,3.37S105.25,22.39,103.44,22.45Z"/><path class="cls-2" d="M133.8,19.52a2.53,2.53,0,0,0,1.54-2.35c0-1.79-1.56-2.82-4.05-2.82h-4.07V27.53h4.1c3.34,0,5.45-1.54,5.45-4.19A3.83,3.83,0,0,0,133.8,19.52Zm-3.18-4.06c1.38,0,2.25.43,2.25,1.71a1.93,1.93,0,0,1-1.85,2h-.4Zm0,10.84V20.38A2.73,2.73,0,0,1,133.45,23a2.38,2.38,0,0,1,0,.38,2.72,2.72,0,0,1-2.53,2.91Z"/><path class="cls-2" d="M208.61,14.35h-.81c-3.34,0-5.46,1.62-5.46,4.39a3.92,3.92,0,0,0,2.43,3.79l-3.14,5h3.09l2.67-4.43h1.22v4.42H212V14.35Zm0,7.5a2.82,2.82,0,0,1-2.94-2.69,3,3,0,0,1,0-.42,2.82,2.82,0,0,1,2.49-3.1,3.23,3.23,0,0,1,.44,0Z"/><polygon class="cls-2" points="83.97 9.86 83.97 11.93 83.97 27.53 87.61 27.53 87.61 11.93 88.94 11.93 92.02 11.93 92.02 27.53 95.66 27.53 95.66 9.86 88.94 9.86 83.97 9.86"/><polygon class="cls-1" points="93.91 37.29 92.92 37.29 90.94 40.26 89.48 40.26 89.48 37.29 88.58 37.29 88.58 40.26 87.12 40.26 85.15 37.29 84.17 37.29 86.39 40.57 83.97 44.05 85.06 44.05 87.12 41.04 88.58 41.04 88.58 44.05 89.48 44.05 89.48 41.04 90.94 41.04 93.01 44.05 94.1 44.05 91.68 40.58 93.91 37.29"/><polygon class="cls-1" points="97.79 42.66 97.79 37.29 96.89 37.29 96.89 44.05 97.7 44.05 102.18 38.68 102.18 44.05 103.08 44.05 103.08 37.29 102.28 37.29 97.79 42.66"/><path class="cls-1" d="M107.42,39.71a14.09,14.09,0,0,1-.16,1.9,3.44,3.44,0,0,1-.35,1.21.89.89,0,0,1-.8.49l-.32-.05-.06.78a2.38,2.38,0,0,0,.65.1A1.39,1.39,0,0,0,107.75,43a12.22,12.22,0,0,0,.49-3.24l.08-1.67h3.23V44h.9V37.29h-4.92Z"/><path class="cls-1" d="M120.84,37.67a3.8,3.8,0,0,0-3.5,0,3.27,3.27,0,0,0-1.23,1.22,3.75,3.75,0,0,0,0,3.56,3.27,3.27,0,0,0,1.23,1.22,3.63,3.63,0,0,0,3.5,0,3.25,3.25,0,0,0,1.22-1.22,3.8,3.8,0,0,0,0-3.56A3.25,3.25,0,0,0,120.84,37.67Zm.42,4.38a2.28,2.28,0,0,1-.89.93,2.67,2.67,0,0,1-2.57,0,2.28,2.28,0,0,1-.89-.93,3.05,3.05,0,0,1,0-2.76,2.28,2.28,0,0,1,.89-.93,2.67,2.67,0,0,1,2.57,0,2.28,2.28,0,0,1,.89.93A3.11,3.11,0,0,1,121.26,42.05Z"/><path class="cls-1" d="M130.16,35.87a1.53,1.53,0,0,0,.53-1.23H130a1.05,1.05,0,0,1-.36.8,1.38,1.38,0,0,1-.9.3,1.33,1.33,0,0,1-.9-.3,1.05,1.05,0,0,1-.36-.8h-.65a1.53,1.53,0,0,0,.53,1.23,2.37,2.37,0,0,0,2.76,0Z"/><polygon class="cls-1" points="126.63 42.66 126.63 37.29 125.72 37.29 125.72 44.05 126.54 44.05 131.01 38.68 131.01 44.05 131.92 44.05 131.92 37.29 131.12 37.29 126.63 42.66"/><polygon class="cls-1" points="146.22 37.29 145.24 37.29 142.88 40.26 141.33 40.26 141.33 37.29 140.42 37.29 140.42 44.05 141.33 44.05 141.33 41.04 142.86 41.04 145.34 44.05 146.41 44.05 143.58 40.57 146.22 37.29"/><path class="cls-1" d="M153.41,37.67a3.57,3.57,0,0,0-1.75-.43,3.61,3.61,0,0,0-1.76.43,3.25,3.25,0,0,0-1.22,1.22,3.75,3.75,0,0,0,0,3.56,3.25,3.25,0,0,0,1.22,1.22,3.5,3.5,0,0,0,1.76.45,3.46,3.46,0,0,0,1.75-.45,3.25,3.25,0,0,0,1.22-1.22,3.8,3.8,0,0,0,0-3.56A3.25,3.25,0,0,0,153.41,37.67Zm.42,4.38a2.28,2.28,0,0,1-.89.93,2.67,2.67,0,0,1-2.57,0,2.28,2.28,0,0,1-.89-.93,3.05,3.05,0,0,1,0-2.76,2.28,2.28,0,0,1,.89-.93,2.67,2.67,0,0,1,2.57,0,2.28,2.28,0,0,1,.89.93A3.11,3.11,0,0,1,153.83,42.05Z"/><polygon class="cls-1" points="162.06 42.16 159.21 37.29 158.29 37.29 158.29 44.05 159.12 44.05 159.12 38.69 161.84 43.23 162.25 43.23 164.97 38.7 164.97 44.05 165.81 44.05 165.81 37.29 164.96 37.29 162.06 42.16"/><polygon class="cls-1" points="169.66 44.05 170.57 44.05 170.57 38.1 174.79 38.1 174.79 44.05 175.7 44.05 175.7 37.29 169.66 37.29 169.66 44.05"/><path class="cls-1" d="M180,39.71a14.34,14.34,0,0,1-.15,1.9,3.45,3.45,0,0,1-.36,1.21.88.88,0,0,1-.79.49l-.32-.05-.07.78a2.38,2.38,0,0,0,.65.1A1.39,1.39,0,0,0,180.35,43a12.22,12.22,0,0,0,.49-3.24l.09-1.67h3.22V44h.91V37.29h-4.93Z"/><path class="cls-1" d="M193.22,37.67a3.25,3.25,0,0,0-1.67-.43,3.29,3.29,0,0,0-1.68.43,3.08,3.08,0,0,0-1.18,1.22,3.69,3.69,0,0,0-.43,1.78,3.53,3.53,0,0,0,.45,1.77A3.06,3.06,0,0,0,190,43.67a3.65,3.65,0,0,0,1.83.45,3.76,3.76,0,0,0,1.48-.29,2.77,2.77,0,0,0,1.12-.82l-.52-.59a2.45,2.45,0,0,1-.9.66,3,3,0,0,1-1.15.23,2.7,2.7,0,0,1-1.84-.65,2.44,2.44,0,0,1-.81-1.71h5.63v-.28a3.68,3.68,0,0,0-.42-1.78A3.06,3.06,0,0,0,193.22,37.67Zm-4.05,2.6a2.46,2.46,0,0,1,.75-1.63,2.47,2.47,0,0,1,3.27,0,2.46,2.46,0,0,1,.75,1.63Z"/><polygon class="cls-1" points="203.9 37.29 202.91 37.29 200.55 40.26 199 40.26 199 37.29 198.09 37.29 198.09 44.05 199 44.05 199 41.04 200.53 41.04 203.01 44.05 204.09 44.05 201.25 40.57 203.9 37.29"/><path class="cls-1" d="M208.06,38.36a2.68,2.68,0,0,1,2.42-.08,2.12,2.12,0,0,1,.84.76l.68-.47a2.54,2.54,0,0,0-1.08-1,3.44,3.44,0,0,0-1.55-.34,3.72,3.72,0,0,0-1.79.43,3.27,3.27,0,0,0-1.23,1.22,3.75,3.75,0,0,0,0,3.56,3.16,3.16,0,0,0,1.23,1.23,3.62,3.62,0,0,0,1.79.44,3.57,3.57,0,0,0,1.54-.34,2.63,2.63,0,0,0,1.09-1l-.68-.46a2.07,2.07,0,0,1-.84.74,2.4,2.4,0,0,1-1.11.25,2.6,2.6,0,0,1-1.31-.33,2.33,2.33,0,0,1-.91-.93,2.76,2.76,0,0,1-.33-1.38,2.9,2.9,0,0,1,.33-1.38A2.3,2.3,0,0,1,208.06,38.36Z"/></g></g></svg>