<svg viewBox="0 0 212 54" xmlns="http://www.w3.org/2000/svg"><path d="m34.35 0-.29.15-2.27 52.18h-.22l.2-51-.24.12-2.24 51h-.44l.34-49.78-.18.1-2.22 49.78h-.67l.49-48.55-.12.06-2.2 48.57h-.89l.6-47.25h-.06l-2.15 47.39h-1.12l.77-46.1-.5 10.93v-.39l-5.37-.43v1l2.79.58-2.83-.21v1l3 .61-3-.21v1l3.23.61-3.27-.18v.95l3.46.63-3.5-.17v.92l3.68.65-3.71-.16v.9l3.35.56-3.38-.12v.86l4 .65-4.08-.11v.83l4.29.65-4.6-.02v.78l.56-12-.1.08-3.16 36.32h-.47l1.7-35.34-.11.07-3 35.33h-.57l1.65-34.32h-.1l-2.91 34.43h-.68l1.67-33.35h-.11l-2.79 33.44h-.77l1.64-32.44h-.11l-2.66 32.52-4.68.21v.27h34.63v-.16h.06l1.23-53.17zm-19.35 28.83 4.51.65-4.51-.05v.48zm-.07 1.38 4.75.64h-4.77v.32zm-.07 1.37 5.08.64h-5.1v.23zm4.44 21.3-5.46.24v-.67h5.44zm.07-1.34-5.47.61v-1.1l5.44.08zm.06-1.37-5.43.56v-1.04l5.44.12zm.06-1.37-5.49.52.05-1.05 5.44.17zm.07-1.37-5.46.48.05-1 5.43.21zm.06-1.38-5.45.44v-1l5.43.25zm.07-1.37-5.46.4v.06-1l5.43.3zm.06-1.37-5.45.36v.08-1l5.43.34zm.06-1.37-5.44.32v.09l.05-1 5.43.39zm.07-1.45-5.44.28v.07-.92l5.42.43zm.06-1.37-5.44.23v.08-.9l5.41.47zm.06-1.39-5.44.2v.07-.89l5.41.51zm.06-1.37-5.43.15v.12-.89l5.41.56zm.07-1.36-5.43.11v.14-.88l5.41.6zm-5.37-1.32v.19-.89l5.37.64z" fill="#c67b61"/><path d="m52.32 16.21-4.72 1.04-.34-10.53-1.58-.83 3.09 48h5.63l-.55-36.89zm-4.72 1.23 4.7-.58v.71l-4.7 1.05zm0 1.4 4.73-.56v.67l-4.73 1zm0 1.4 4.77-.54v.62l-4.76 1zm.05 1.4 4.79-.52v.58l-4.79 1zm0 1.4 4.83-.5v.53l-4.82 1zm0 1.4 5.03-.44v.49l-4.85 1zm0 1.4 4.89-.45v.43l-4.88 1zm.05 1.4 4.92-.43v.39l-4.62 1zm0 1.4 4.95-.41v.34l-4.94 1zm.3 1.36 5-.39v.39l-5 1zm0 1.4 5-.36v.25l-5 1zm.05 1.4 5-.34v.2l-5 1zm0 1.4 5.08-.32v.16l-5 1zm0 1.4 5.1-.3v.11l-5.09 1zm0 1.4 5.14-.27v.06l-5.11 1zm.51 15.8v-.41h2.56zm0-1.37v-.44h2.8zm-.05-1.37v-.46h3zm0-1.37v-.49l3.3-.06zm0-1.37v-.52l3.55-.08zm0-1.37v-.55l3.82-.1zm0-1.37v-.58l4.09-.13zm0-1.36v-.62l4.38-.15zm0-1.37v-.66l4.49-.13zm0-1.37v-.68l5-.22zm0-1.37v-.71l5.16-.25z" fill="#c67b61"/><path d="m54.35 17.23 2.28 36.61h.12l-.97-35.88z" fill="#c67b61"/><path d="m56.43 18.29 2.56 35.55h.1l-1.39-34.91z" fill="#c67b61"/><path d="m58.51 19.34 2.83 34.5h.1l-1.81-33.93z" fill="#c67b61"/><path d="m37.37 53.84h.29l.68-51.96-1.58-.7z" fill="#c67b61"/><path d="m40.41 53.84h.21l.14-50.75-1.59-.73z" fill="#c67b61"/><path d="m41.39 3.54 1.85 50.3h.14l-.41-49.54z" fill="#c67b61"/><path d="m43.53 4.71 2.48 49.13h.07l-.96-48.33z" fill="#c67b61"/><path d="m61.56 20.88-.98-.49 3.07 32.99.05.62h5.42v-.27l-5.37-.35z" fill="#c67b61"/><path d="m116.23 22.08v-7.73h-3.39v13.18h3.04l3.25-7.73v7.73h3.4v-13.18h-3.04z" fill="#1d1d1b"/><path d="m149.89 27.53v-13.18h-3.03l-3.26 7.73v-7.73h-3.39v13.18h3.03l3.26-7.73v7.73z" fill="#1d1d1b"/><path d="m160.42 27.53h3.33l-3.25-13.18h-4.19l-3.25 13.18h3.33l2.03-11.39z" fill="#1d1d1b"/><path d="m174.69 25.71h-4.11v-5.23h3.39v-1.82h-3.39v-2.49h4.11v-1.82h-7.5v13.18h7.5z" fill="#1d1d1b"/><path d="m178.7 27.53h3.39v-11.36h3.53v-1.82h-6.92z" fill="#1d1d1b"/><path d="m198.88 27.53v-13.18h-3.04l-3.25 7.73v-7.73h-3.4v13.18h3.04l3.26-7.73v7.73z" fill="#1d1d1b"/><path d="m109.72 19.08c0-3-2.11-4.73-5.45-4.73h-4.22v13.18h3.39v-3.69h.83c3.34 0 5.45-1.75 5.45-4.76zm-6.28 3.37v-6.74c1.81.06 3 1.25 3 3.37s-1.19 3.31-3 3.37z" fill="#1d1d1b"/><path d="m133.8 19.52a2.52 2.52 0 0 0 1.54-2.35c0-1.79-1.56-2.82-4.05-2.82h-4.07v13.18h4.1c3.34 0 5.45-1.54 5.45-4.19a3.84 3.84 0 0 0 -2.97-3.82zm-3.18-4.06c1.38 0 2.25.43 2.25 1.71a1.93 1.93 0 0 1 -2.11 2h-.14zm0 10.84v-5.92a2.73 2.73 0 0 1 2.82 3 2.73 2.73 0 0 1 -2.82 2.92z" fill="#1d1d1b"/><path d="m208.61 14.35h-.81c-3.34 0-5.46 1.62-5.46 4.39a3.92 3.92 0 0 0 2.43 3.79l-3.14 5h3.09l2.67-4.43h1.22v4.42h3.39v-13.17zm0 7.5a2.82 2.82 0 0 1 -2.93-3.11 2.81 2.81 0 0 1 2.93-3.11z" fill="#1d1d1b"/><path d="m83.97 9.86v2.07 15.6h3.64v-15.6h1.33 3.08v15.6h3.64v-17.67h-6.72z" fill="#1d1d1b"/><g fill="#c67b61"><path d="m93.91 37.29h-.99l-1.98 2.97h-1.46v-2.97h-.9v2.97h-1.46l-1.97-2.97h-.98l2.22 3.28-2.42 3.48h1.09l2.06-3.01h1.46v3.01h.9v-3.01h1.46l2.07 3.01h1.09l-2.42-3.47z"/><path d="m97.79 42.66v-5.37h-.9v6.76h.81l4.48-5.37v5.37h.9v-6.76h-.8z"/><path d="m107.42 39.71c0 .78-.1 1.42-.16 1.9a3.38 3.38 0 0 1 -.35 1.21.88.88 0 0 1 -.8.49l-.32-.05-.06.78a2.51 2.51 0 0 0 .65.1 1.4 1.4 0 0 0 1.37-1.14 12.29 12.29 0 0 0 .49-3.24l.08-1.67h3.23v5.95h.9v-6.75h-4.92z"/><path d="m120.84 37.67a3.78 3.78 0 0 0 -3.5 0 3.2 3.2 0 0 0 -1.23 1.22 3.75 3.75 0 0 0 0 3.56 3.2 3.2 0 0 0 1.23 1.22 3.63 3.63 0 0 0 3.5 0 3.18 3.18 0 0 0 1.22-1.22 3.82 3.82 0 0 0 0-3.56 3.18 3.18 0 0 0 -1.22-1.22zm.42 4.38a2.28 2.28 0 0 1 -.89.93 2.67 2.67 0 0 1 -2.57 0 2.35 2.35 0 0 1 -.89-.93 3.05 3.05 0 0 1 0-2.76 2.35 2.35 0 0 1 .89-.93 2.67 2.67 0 0 1 2.57 0 2.28 2.28 0 0 1 .89.93 3.14 3.14 0 0 1 0 2.76z"/><path d="m130.16 35.87a1.54 1.54 0 0 0 .53-1.23h-.69a1.06 1.06 0 0 1 -.36.8 1.36 1.36 0 0 1 -.9.3 1.32 1.32 0 0 1 -.9-.3 1.06 1.06 0 0 1 -.36-.8h-.65a1.54 1.54 0 0 0 .53 1.23 2.38 2.38 0 0 0 2.76 0z"/><path d="m126.63 42.66v-5.37h-.91v6.76h.82l4.47-5.37v5.37h.91v-6.76h-.8z"/><path d="m146.22 37.29h-.98l-2.36 2.97h-1.55v-2.97h-.91v6.76h.91v-3.01h1.53l2.48 3.01h1.07l-2.83-3.48z"/><path d="m153.41 37.67a3.55 3.55 0 0 0 -1.75-.43 3.58 3.58 0 0 0 -1.76.43 3.18 3.18 0 0 0 -1.22 1.22 3.75 3.75 0 0 0 0 3.56 3.18 3.18 0 0 0 1.22 1.22 3.49 3.49 0 0 0 1.76.45 3.46 3.46 0 0 0 1.75-.45 3.18 3.18 0 0 0 1.22-1.22 3.82 3.82 0 0 0 0-3.56 3.18 3.18 0 0 0 -1.22-1.22zm.42 4.38a2.28 2.28 0 0 1 -.89.93 2.67 2.67 0 0 1 -2.57 0 2.28 2.28 0 0 1 -.89-.93 3.05 3.05 0 0 1 0-2.76 2.28 2.28 0 0 1 .89-.93 2.67 2.67 0 0 1 2.57 0 2.28 2.28 0 0 1 .89.93 3.14 3.14 0 0 1 0 2.76z"/><path d="m162.06 42.16-2.85-4.87h-.92v6.76h.83v-5.36l2.72 4.54h.41l2.72-4.53v5.35h.84v-6.76h-.85z"/><path d="m169.66 44.05h.91v-5.95h4.22v5.95h.91v-6.76h-6.04z"/><path d="m180 39.71c0 .78-.09 1.42-.15 1.9a3.38 3.38 0 0 1 -.36 1.21.87.87 0 0 1 -.79.49l-.32-.05-.07.78a2.51 2.51 0 0 0 .65.1 1.39 1.39 0 0 0 1.39-1.14 12.29 12.29 0 0 0 .49-3.24l.09-1.67h3.22v5.95h.91v-6.75h-4.93z"/><path d="m193.22 37.67a3.22 3.22 0 0 0 -1.67-.43 3.28 3.28 0 0 0 -1.68.43 3.15 3.15 0 0 0 -1.18 1.22 3.75 3.75 0 0 0 -.43 1.78 3.48 3.48 0 0 0 .45 1.77 3.08 3.08 0 0 0 1.29 1.23 3.65 3.65 0 0 0 1.83.45 3.76 3.76 0 0 0 1.48-.29 2.79 2.79 0 0 0 1.12-.82l-.52-.59a2.45 2.45 0 0 1 -.9.66 2.91 2.91 0 0 1 -1.15.23 2.67 2.67 0 0 1 -1.84-.65 2.42 2.42 0 0 1 -.81-1.71h5.63v-.28a3.69 3.69 0 0 0 -.42-1.78 3.05 3.05 0 0 0 -1.2-1.22zm-4.05 2.6a2.47 2.47 0 0 1 .75-1.63 2.3 2.3 0 0 1 1.63-.62 2.32 2.32 0 0 1 1.64.62 2.47 2.47 0 0 1 .75 1.63z"/><path d="m203.9 37.29h-.99l-2.36 2.97h-1.55v-2.97h-.91v6.76h.91v-3.01h1.53l2.48 3.01h1.08l-2.84-3.48z"/><path d="m208.06 38.36a2.68 2.68 0 0 1 2.42-.08 2.11 2.11 0 0 1 .84.76l.68-.47a2.52 2.52 0 0 0 -1.08-1 3.4 3.4 0 0 0 -1.55-.34 3.65 3.65 0 0 0 -1.79.43 3.2 3.2 0 0 0 -1.23 1.22 3.75 3.75 0 0 0 0 3.56 3.16 3.16 0 0 0 1.23 1.23 3.65 3.65 0 0 0 1.79.44 3.52 3.52 0 0 0 1.54-.34 2.57 2.57 0 0 0 1.09-1l-.68-.46a2.06 2.06 0 0 1 -.84.74 2.44 2.44 0 0 1 -1.11.25 2.58 2.58 0 0 1 -1.31-.33 2.33 2.33 0 0 1 -.91-.93 2.82 2.82 0 0 1 -.33-1.38 2.87 2.87 0 0 1 .33-1.38 2.33 2.33 0 0 1 .91-.92z"/></g></svg>